# xmcd
#
# Track frame offsets: 
#        225
#        12306
#        22057
#        34469
#        48017
#        64320
#        74839
#        86820
#        97402
#        108208
#        118976
#        129021
#        141553
#        152045
#        163117
#
# Disc length: 2331 seconds
#
# Revision: 0
# Processed by: cddbd v1.5.2PL0 Copyright (c) Steve Scherf et al.
# Submitted via: ExactAudioCopy v0.99pb4
#
DISCID=e209180f
DTITLE=Jerry Butler - The Ice Man
DYEAR=1900
DGENRE=soul
TTITLE0=For your precious love
TTITLE1=Good times
TTITLE2=He will break your heart
TTITLE3=I stand accused
TTITLE4=No end in time
TTITLE5=Lost without you
TTITLE6=Moon river
TTITLE7=I'm telling you
TTITLE8=Whatever you want
TTITLE9=Givin' up on love
TTITLE10=Aware of love
TTITLE11=Find another girl
TTITLE12=It's too late
TTITLE13=Thanks to you
TTITLE14=Make it easy on yourself
EXTD=
EXTT0=
EXTT1=
EXTT2=
EXTT3=
EXTT4=
EXTT5=
EXTT6=
EXTT7=
EXTT8=
EXTT9=
EXTT10=
EXTT11=
EXTT12=
EXTT13=
EXTT14=
PLAYORDER=
